<svg width="25" height="24" viewBox="0 0 25 24" fill="none" xmlns="http://www.w3.org/2000/svg">
<path d="M17.92 4.41141H5.88996L7.76996 2.53141C8.05996 2.24141 8.05996 1.76141 7.76996 1.47141C7.47996 1.18141 6.99996 1.18141 6.70996 1.47141L3.54996 4.63141C3.47996 4.70141 3.42996 4.78141 3.38996 4.87141C3.34996 4.96141 3.32996 5.06141 3.32996 5.16141C3.32996 5.26141 3.34996 5.36141 3.38996 5.45141C3.42996 5.54141 3.47996 5.62141 3.54996 5.69141L6.70996 8.85141C6.85996 9.00141 7.04996 9.07141 7.23996 9.07141C7.42996 9.07141 7.61996 9.00141 7.76996 8.85141C8.05996 8.56141 8.05996 8.08141 7.76996 7.79141L5.88996 5.91141H17.92C19.16 5.91141 20.17 6.92141 20.17 8.16141V11.4814C20.17 11.8914 20.51 12.2314 20.92 12.2314C21.33 12.2314 21.67 11.8914 21.67 11.4814V8.16141C21.67 6.09141 19.99 4.41141 17.92 4.41141Z" fill="white"/>
<path d="M21.67 18.8395C21.67 18.7395 21.65 18.6395 21.61 18.5495C21.57 18.4595 21.52 18.3795 21.45 18.3095L18.29 15.1495C18 14.8595 17.52 14.8595 17.23 15.1495C16.94 15.4395 16.94 15.9195 17.23 16.2095L19.11 18.0895H7.07996C5.83996 18.0895 4.82996 17.0795 4.82996 15.8395V12.5195C4.82996 12.1095 4.48996 11.7695 4.07996 11.7695C3.66996 11.7695 3.32996 12.1095 3.32996 12.5195V15.8395C3.32996 17.9095 5.00996 19.5895 7.07996 19.5895H19.11L17.23 21.4695C16.94 21.7595 16.94 22.2395 17.23 22.5295C17.38 22.6795 17.57 22.7495 17.76 22.7495C17.95 22.7495 18.14 22.6795 18.29 22.5295L21.45 19.3695C21.52 19.2995 21.57 19.2195 21.61 19.1295C21.65 19.0395 21.67 18.9395 21.67 18.8395Z" fill="white"/>
</svg>
