<svg width="40" height="40" viewBox="0 0 40 40" fill="none" xmlns="http://www.w3.org/2000/svg">
<path d="M33.3333 20V30C33.3333 33.6834 30.35 36.6667 26.6667 36.6667H13.3333C9.64999 36.6667 6.66666 33.6834 6.66666 30V20C6.66666 19.0834 7.41666 18.3334 8.33332 18.3334H11.6167C12.5333 18.3334 13.2833 19.0834 13.2833 20V25.2334C13.2833 26.4667 13.9667 27.6 15.05 28.1834C15.5333 28.45 16.0667 28.5834 16.6167 28.5834C17.25 28.5834 17.8833 28.4 18.4333 28.0334L20.0167 27L21.4833 27.9834C22.5 28.6667 23.8 28.75 24.8833 28.1667C25.9833 27.5834 26.6667 26.4667 26.6667 25.2167V20C26.6667 19.0834 27.4167 18.3334 28.3333 18.3334H31.6667C32.5833 18.3334 33.3333 19.0834 33.3333 20Z" fill="white"/>
<path d="M35.8333 11.6667V13.3334C35.8333 15.1667 34.95 16.6667 32.5 16.6667H7.49999C4.94999 16.6667 4.16666 15.1667 4.16666 13.3334V11.6667C4.16666 9.83337 4.94999 8.33337 7.49999 8.33337H32.5C34.95 8.33337 35.8333 9.83337 35.8333 11.6667Z" fill="white"/>
<path d="M19.4 8.33336H10.2C9.63333 7.71669 9.65 6.76669 10.25 6.16669L12.6167 3.80002C13.2333 3.18336 14.25 3.18336 14.8667 3.80002L19.4 8.33336Z" fill="white"/>
<path d="M29.7833 8.33336H20.5833L25.1167 3.80002C25.7333 3.18336 26.75 3.18336 27.3667 3.80002L29.7333 6.16669C30.3333 6.76669 30.35 7.71669 29.7833 8.33336Z" fill="white"/>
<path d="M23.2833 18.3334C24.2 18.3334 24.95 19.0834 24.95 20V25.2167C24.95 26.55 23.4667 27.35 22.3667 26.6L20.8667 25.6C20.3167 25.2334 19.6 25.2334 19.0333 25.6L17.4667 26.6334C16.3667 27.3667 14.9 26.5667 14.9 25.25V20C14.9 19.0834 15.65 18.3334 16.5667 18.3334H23.2833Z" fill="white"/>
</svg>
