<svg width="40" height="40" viewBox="0 0 40 40" fill="none" xmlns="http://www.w3.org/2000/svg">
<path d="M4.58334 31.0833C3.9 31.0833 3.33334 30.5166 3.33334 29.8333V20.3333C3.25 15.8166 4.93334 11.55 8.06667 8.34996C11.2 5.16663 15.4 3.41663 19.9167 3.41663C29.15 3.41663 36.6667 10.9333 36.6667 20.1666V29.6666C36.6667 30.35 36.1 30.9166 35.4167 30.9166C34.7333 30.9166 34.1667 30.35 34.1667 29.6666V20.1666C34.1667 12.3166 27.7833 5.91663 19.9167 5.91663C16.0667 5.91663 12.5 7.39996 9.85 10.1C7.18334 12.8166 5.76667 16.4333 5.83334 20.3V29.8166C5.83334 30.5166 5.28334 31.0833 4.58334 31.0833Z" fill="white"/>
<path d="M9.90001 20.75H9.68334C6.18334 20.75 3.33334 23.6 3.33334 27.1V30.2333C3.33334 33.7333 6.18334 36.5833 9.68334 36.5833H9.90001C13.4 36.5833 16.25 33.7333 16.25 30.2333V27.1C16.25 23.6 13.4 20.75 9.90001 20.75Z" fill="white"/>
<path d="M30.3167 20.75H30.1C26.6 20.75 23.75 23.6 23.75 27.1V30.2333C23.75 33.7333 26.6 36.5833 30.1 36.5833H30.3167C33.8167 36.5833 36.6667 33.7333 36.6667 30.2333V27.1C36.6667 23.6 33.8167 20.75 30.3167 20.75Z" fill="white"/>
</svg>
