<svg width="644" height="106" viewBox="0 0 644 106" fill="none" xmlns="http://www.w3.org/2000/svg">
<g clip-path="url(#clip0_131_464)">
<path d="M607.38 14H36.6202C25.8261 14 17.0757 15.0848 17.0757 16.4229V90.5771C17.0757 91.9152 25.8261 93 36.6202 93H607.38C618.174 93 626.924 91.9152 626.924 90.5771V16.4229C626.924 15.0848 618.174 14 607.38 14Z" fill="#30383A"/>
<path fill-rule="evenodd" clip-rule="evenodd" d="M626.608 29.3698L607.079 13.8538L614.284 0.0772705L644 23.6121L626.608 29.3698Z" fill="#EFF1F0"/>
<path fill-rule="evenodd" clip-rule="evenodd" d="M607.135 92.5473L626.664 77.0312L644 82.7578L614.38 106.368L607.135 92.5473Z" fill="#646D6A"/>
<path fill-rule="evenodd" clip-rule="evenodd" d="M644 23.8698L626.608 29.6275L626.608 77L644 82.7577V23.8698Z" fill="#A0A9A8"/>
<path fill-rule="evenodd" clip-rule="evenodd" d="M614.38 106.368L607.135 92.5468L36.9159 92.5156L29.7157 106.292L614.38 106.368Z" fill="#4A5859"/>
<path fill-rule="evenodd" clip-rule="evenodd" d="M17.3916 77L36.9158 92.5159L29.71 106.293L0 82.7577L17.3916 77Z" fill="#3D4C4E"/>
<path fill-rule="evenodd" clip-rule="evenodd" d="M36.8596 13.8212L17.3355 29.3371L0 23.6106L29.6201 0L36.8596 13.8212Z" fill="#677E92"/>
<path fill-rule="evenodd" clip-rule="evenodd" d="M0 82.7577L17.3916 77V29.3698L0 23.6121L0 82.7577Z" fill="#4D6474"/>
<path fill-rule="evenodd" clip-rule="evenodd" d="M29.6202 0.00146484L36.8597 13.8226L607.078 13.8539L614.284 0.0772829L29.6202 0.00146484Z" fill="#D8E0E2"/>
</g>
<defs>
<clipPath id="clip0_131_464">
<rect width="644" height="106" fill="white"/>
</clipPath>
</defs>
</svg>
