<svg width="12" height="7" viewBox="0 0 12 7" fill="none" xmlns="http://www.w3.org/2000/svg">
<path d="M0.408447 6.15877C0.485916 6.23688 0.578083 6.29888 0.679632 6.34118C0.781181 6.38349 0.890103 6.40527 1.00011 6.40527C1.11012 6.40527 1.21904 6.38349 1.32059 6.34118C1.42214 6.29888 1.51431 6.23688 1.59178 6.15877L5.40845 2.34212C5.48592 2.26401 5.57808 2.20201 5.67963 2.15971C5.78118 2.1174 5.8901 2.09562 6.00011 2.09562C6.11012 2.09562 6.21904 2.1174 6.32059 2.15971C6.42214 2.20201 6.51431 2.26401 6.59178 2.34212L10.4084 6.15878C10.4859 6.23688 10.5781 6.29888 10.6796 6.34118C10.7812 6.38349 10.8901 6.40527 11.0001 6.40527C11.1101 6.40527 11.219 6.38349 11.3206 6.34118C11.4221 6.29888 11.5143 6.23688 11.5918 6.15878C11.747 6.00264 11.8341 5.79143 11.8341 5.57128C11.8341 5.35112 11.747 5.13991 11.5918 4.98378L7.76678 1.15878C7.29803 0.690617 6.66262 0.427652 6.00011 0.427652C5.33761 0.427652 4.7022 0.690617 4.23345 1.15878L0.408447 4.98378C0.253238 5.13991 0.166119 5.35112 0.166119 5.57128C0.166119 5.79143 0.253238 6.00264 0.408447 6.15877Z" fill="#73B009"/>
</svg>
