<svg width="23" height="23" viewBox="0 0 23 23" fill="none" xmlns="http://www.w3.org/2000/svg">
<path d="M19.3833 4.25814V6.27481C19.3833 7.00814 18.925 7.92481 18.4666 8.38314L14.525 11.8665C13.975 12.3248 13.6083 13.2415 13.6083 13.9748V17.9165C13.6083 18.4665 13.2416 19.1998 12.7833 19.4748L11.5 20.2998C10.3083 21.0331 8.65831 20.2081 8.65831 18.7415V13.8831C8.65831 13.2415 8.29164 12.4165 7.92498 11.9581L7.49414 11.509C7.20998 11.2065 7.15498 10.7481 7.38414 10.3906L12.0775 2.85564C12.2425 2.5898 12.5358 2.4248 12.8566 2.4248H17.55C18.5583 2.4248 19.3833 3.2498 19.3833 4.25814Z" fill="#4DA11E"/>
<path d="M9.98753 3.8273L6.73337 9.04314C6.4217 9.5473 5.7067 9.62064 5.2942 9.1898L4.4417 8.29147C3.98337 7.83314 3.6167 7.00814 3.6167 6.45814V4.3498C3.6167 3.2498 4.4417 2.4248 5.45003 2.4248H9.20837C9.92337 2.4248 10.3634 3.21314 9.98753 3.8273Z" fill="#4DA11E"/>
</svg>
