<svg width="12" height="10" viewBox="0 0 12 10" fill="none" xmlns="http://www.w3.org/2000/svg">
<rect width="12" height="10" fill="#E5E5E5"/>
<rect width="1280" height="1996" transform="translate(-639 -575)" fill="white"/>
<g filter="url(#filter0_d)">
<rect x="-359" y="-440" width="980" height="1731" rx="8" fill="white"/>
</g>
<path d="M-43.2959 12L-42.4824 7.29004H-43.6787L-43.5557 6.59277H-42.3594L-41.5664 2.04688L-38.9756 2.05371C-38.2054 2.05371 -37.5378 2.25195 -36.9727 2.64844C-36.4076 3.04036 -35.9997 3.58496 -35.749 4.28223C-35.4938 4.97493 -35.4186 5.73828 -35.5234 6.57227L-35.6465 7.39941C-35.8561 8.78027 -36.4076 9.89225 -37.3008 10.7354C-38.194 11.5785 -39.29 12 -40.5889 12H-43.2959ZM-39.6045 7.29004H-41.6416L-42.3389 11.2891L-40.5615 11.2959C-39.8643 11.2959 -39.2285 11.1364 -38.6543 10.8174C-38.0801 10.4984 -37.6061 10.0495 -37.2324 9.4707C-36.8542 8.88737 -36.6081 8.23112 -36.4941 7.50195C-36.3757 6.76823 -36.3141 6.26237 -36.3096 5.98438C-36.3005 5.70638 -36.3141 5.4375 -36.3506 5.17773C-36.4554 4.44857 -36.7334 3.86979 -37.1846 3.44141C-37.6357 3.01302 -38.2191 2.78971 -38.9346 2.77148L-40.8555 2.76465L-41.5254 6.59277H-39.4814L-39.6045 7.29004ZM-30.4854 4.4668C-29.583 4.48503 -28.863 4.81771 -28.3252 5.46484C-27.9059 5.41016 -27.5892 5.26432 -27.375 5.02734C-27.1608 4.78581 -27.0081 4.38249 -26.917 3.81738L-26.2334 3.81055C-26.3154 4.47135 -26.5023 4.97721 -26.7939 5.32812C-27.0811 5.67448 -27.4844 5.90007 -28.0039 6.00488C-27.8945 6.36035 -27.8285 6.7181 -27.8057 7.07812C-27.7601 8.02148 -27.8968 8.88737 -28.2158 9.67578C-28.5348 10.4596 -28.9997 11.0726 -29.6104 11.5146C-30.2165 11.9521 -30.8932 12.1618 -31.6406 12.1436C-32.2513 12.1253 -32.7686 11.9567 -33.1924 11.6377C-33.6117 11.3187 -33.917 10.8766 -34.1084 10.3115C-34.2998 9.74186 -34.359 9.12663 -34.2861 8.46582L-34.2725 8.34277C-34.1312 7.17611 -33.7096 6.23275 -33.0078 5.5127C-32.306 4.79264 -31.4652 4.44401 -30.4854 4.4668ZM-33.4795 8.47266C-33.5706 9.33854 -33.4499 10.0472 -33.1172 10.5986C-32.7799 11.1455 -32.2718 11.4303 -31.5928 11.4531C-31.0003 11.4714 -30.4626 11.2868 -29.9795 10.8994C-29.4964 10.5075 -29.1364 9.96517 -28.8994 9.27246C-28.6579 8.5752 -28.5781 7.86654 -28.6602 7.14648C-28.7285 6.54948 -28.929 6.07324 -29.2617 5.71777C-29.5898 5.3623 -30.016 5.17546 -30.54 5.15723C-31.2965 5.13444 -31.946 5.42839 -32.4883 6.03906C-33.0306 6.64974 -33.361 7.46094 -33.4795 8.47266ZM-24.7773 4.60352L-25.0234 5.86816C-24.6953 5.41243 -24.3171 5.0638 -23.8887 4.82227C-23.4557 4.57617 -22.9932 4.45768 -22.501 4.4668C-21.79 4.48503 -21.2728 4.7334 -20.9492 5.21191C-20.6257 5.69043 -20.5117 6.34896 -20.6074 7.1875L-21.4141 12H-22.2207L-21.4141 7.17383C-21.3867 6.91406 -21.3822 6.66341 -21.4004 6.42188C-21.4779 5.61068 -21.9199 5.19368 -22.7266 5.1709C-23.2051 5.16178 -23.6517 5.30534 -24.0664 5.60156C-24.4811 5.89323 -24.8457 6.33529 -25.1602 6.92773L-26.0352 12H-26.8418L-25.5566 4.60352H-24.7773ZM-14.1064 5.85449C-13.3955 4.91113 -12.557 4.44857 -11.5908 4.4668C-10.8799 4.48503 -10.3626 4.7334 -10.0391 5.21191C-9.71549 5.69043 -9.60156 6.34896 -9.69727 7.1875L-10.5039 12H-11.3105L-10.5039 7.17383C-10.4766 6.91406 -10.472 6.66341 -10.4902 6.42188C-10.5677 5.61068 -11.0098 5.19368 -11.8164 5.1709C-12.2949 5.16178 -12.7415 5.30534 -13.1562 5.60156C-13.571 5.89323 -13.9355 6.33529 -14.25 6.92773L-15.125 12H-15.9316L-14.1064 1.5H-13.2998L-14.1064 5.85449ZM-3.81152 12C-3.83431 11.8268 -3.84115 11.6536 -3.83203 11.4805L-3.77051 10.9678C-4.1123 11.3369 -4.50423 11.6263 -4.94629 11.8359C-5.38379 12.0456 -5.85775 12.1458 -6.36816 12.1367C-6.99251 12.1276 -7.50065 11.9316 -7.89258 11.5488C-8.27995 11.1615 -8.45312 10.6761 -8.41211 10.0928C-8.37565 9.60514 -8.20931 9.18359 -7.91309 8.82812C-7.6123 8.4681 -7.1862 8.1901 -6.63477 7.99414C-6.08333 7.79362 -5.46582 7.69336 -4.78223 7.69336L-3.27148 7.7002L-3.14844 6.85254C-3.09375 6.34668 -3.20312 5.94108 -3.47656 5.63574C-3.75 5.3304 -4.15332 5.16862 -4.68652 5.15039C-5.22428 5.14128 -5.69368 5.27572 -6.09473 5.55371C-6.49121 5.82715 -6.73958 6.18945 -6.83984 6.64062H-7.63965C-7.5485 5.99349 -7.21582 5.46712 -6.6416 5.06152C-6.06738 4.65137 -5.38835 4.45085 -4.60449 4.45996C-3.84342 4.47819 -3.25781 4.70833 -2.84766 5.15039C-2.43294 5.59245 -2.26432 6.16667 -2.3418 6.87305L-2.95703 10.5918L-3.01172 11.1865C-3.02539 11.4326 -3.00716 11.6764 -2.95703 11.918L-2.9707 12H-3.81152ZM-6.23145 11.4189C-5.73014 11.4372 -5.25163 11.3187 -4.7959 11.0635C-4.33561 10.8037 -3.95508 10.4368 -3.6543 9.96289L-3.37402 8.3291L-4.67969 8.32227C-5.50911 8.32227 -6.18587 8.47038 -6.70996 8.7666C-7.23405 9.05827 -7.52344 9.47754 -7.57812 10.0244C-7.61914 10.4255 -7.51432 10.7559 -7.26367 11.0156C-7.00846 11.2754 -6.66439 11.4098 -6.23145 11.4189ZM-3.63379 3.41406H-4.31738L-5.52051 1.5H-4.60449L-3.63379 3.41406ZM0.994141 4.60352L0.748047 5.86816C1.07617 5.41243 1.45443 5.0638 1.88281 4.82227C2.31576 4.57617 2.77832 4.45768 3.27051 4.4668C3.98145 4.48503 4.4987 4.7334 4.82227 5.21191C5.14583 5.69043 5.25977 6.34896 5.16406 7.1875L4.35742 12H3.55078L4.35742 7.17383C4.38477 6.91406 4.38932 6.66341 4.37109 6.42188C4.29362 5.61068 3.85156 5.19368 3.04492 5.1709C2.56641 5.16178 2.11979 5.30534 1.70508 5.60156C1.29036 5.89323 0.925781 6.33529 0.611328 6.92773L-0.263672 12H-1.07031L0.214844 4.60352H0.994141ZM10.1475 4.45996C10.5895 4.47363 10.9928 4.57845 11.3574 4.77441C11.722 4.97038 12.0091 5.26888 12.2188 5.66992L12.4717 4.60352H13.2305L11.9863 11.8701C11.8997 12.4899 11.7038 13.0368 11.3984 13.5107C11.0931 13.9847 10.7012 14.347 10.2227 14.5977C9.7487 14.8529 9.22005 14.9714 8.63672 14.9531C8.17188 14.944 7.72754 14.8278 7.30371 14.6045C6.87533 14.3766 6.53125 14.0599 6.27148 13.6543L6.77734 13.1758C7.24674 13.8822 7.8597 14.2445 8.61621 14.2627C9.29069 14.2809 9.85352 14.0758 10.3047 13.6475C10.7604 13.2236 11.0475 12.6449 11.166 11.9111L11.3438 11.0498C10.6875 11.8018 9.89681 12.1641 8.97168 12.1367C8.27897 12.1185 7.73893 11.8542 7.35156 11.3438C6.96875 10.8288 6.76823 10.1292 6.75 9.24512C6.72266 8.42936 6.85938 7.62272 7.16016 6.8252C7.46094 6.02767 7.86882 5.43066 8.38379 5.03418C8.90332 4.63314 9.49121 4.44173 10.1475 4.45996ZM7.60449 8.4248L7.56348 9.06055C7.5498 9.80794 7.67969 10.3867 7.95312 10.7969C8.22656 11.2025 8.62988 11.4144 9.16309 11.4326C9.61882 11.4508 10.0449 11.3438 10.4414 11.1113C10.8379 10.8789 11.1797 10.5348 11.4668 10.0791L12.0479 6.62695C11.9248 6.1849 11.7106 5.83626 11.4053 5.58105C11.1045 5.32129 10.7171 5.18457 10.2432 5.1709C9.5459 5.14811 8.96712 5.41699 8.50684 5.97754C8.05111 6.53809 7.75033 7.35384 7.60449 8.4248ZM20.3057 11.4531C20.8434 11.4714 21.3174 11.3232 21.7275 11.0088C22.1423 10.6898 22.418 10.2614 22.5547 9.72363H23.3271C23.1904 10.4574 22.8304 11.0498 22.2471 11.501C21.6683 11.9476 21.0075 12.1618 20.2646 12.1436C19.6676 12.1299 19.1663 11.9658 18.7607 11.6514C18.3551 11.3369 18.0612 10.9017 17.8789 10.3457C17.7012 9.78971 17.6442 9.16309 17.708 8.46582L17.7354 8.17188C17.79 7.69336 17.9062 7.22852 18.084 6.77734C18.2663 6.32617 18.5078 5.92741 18.8086 5.58105C19.1094 5.23014 19.4671 4.95443 19.8818 4.75391C20.3011 4.54883 20.7728 4.45312 21.2969 4.4668C22.0534 4.48503 22.6549 4.74023 23.1016 5.23242C23.5482 5.72461 23.7578 6.34896 23.7305 7.10547L22.958 7.09863C22.9671 6.52897 22.819 6.06868 22.5137 5.71777C22.2083 5.36686 21.7913 5.18229 21.2627 5.16406C20.6976 5.14583 20.1986 5.3099 19.7656 5.65625C19.3327 6.0026 19.0068 6.49251 18.7881 7.12598C18.5693 7.75944 18.4668 8.43164 18.4805 9.14258C18.4941 9.8763 18.6582 10.4414 18.9727 10.8379C19.2871 11.2298 19.7314 11.4349 20.3057 11.4531ZM24.708 8.2334C24.79 7.5179 25.0088 6.86393 25.3643 6.27148C25.7197 5.67448 26.1618 5.22103 26.6904 4.91113C27.2236 4.60124 27.8001 4.45312 28.4199 4.4668C29.0306 4.47591 29.5501 4.64453 29.9785 4.97266C30.4115 5.29622 30.7259 5.74056 30.9219 6.30566C31.1224 6.86621 31.1908 7.48828 31.127 8.17188L31.1133 8.30176C30.9766 9.46842 30.5618 10.4049 29.8691 11.1113C29.181 11.8177 28.3538 12.1595 27.3877 12.1367C26.5583 12.123 25.8952 11.8177 25.3984 11.2207C24.9017 10.6237 24.6579 9.83529 24.667 8.85547L24.6875 8.46582L24.708 8.2334ZM25.501 8.46582C25.4417 9.00814 25.4805 9.50944 25.6172 9.96973C25.7585 10.4255 25.9818 10.7832 26.2871 11.043C26.5924 11.3027 26.973 11.4395 27.4287 11.4531C27.9209 11.4622 28.3698 11.3369 28.7754 11.0771C29.1855 10.8174 29.5228 10.4505 29.7871 9.97656C30.0514 9.5026 30.2223 8.97852 30.2998 8.4043L30.3203 8.17871C30.4023 7.29915 30.2656 6.58138 29.9102 6.02539C29.5592 5.46484 29.0488 5.17773 28.3789 5.16406C27.6497 5.14128 27.0186 5.42383 26.4854 6.01172C25.9567 6.59505 25.6331 7.37207 25.5146 8.34277L25.501 8.46582ZM29.7393 1.5L30.7715 1.50684L28.9395 3.40723L28.1738 3.41406L29.7393 1.5ZM39.2549 4.45996C39.6969 4.47363 40.1003 4.57845 40.4648 4.77441C40.8294 4.97038 41.1165 5.26888 41.3262 5.66992L41.5791 4.60352H42.3379L41.0938 11.8701C41.0072 12.4899 40.8112 13.0368 40.5059 13.5107C40.2005 13.9847 39.8086 14.347 39.3301 14.5977C38.8561 14.8529 38.3275 14.9714 37.7441 14.9531C37.2793 14.944 36.835 14.8278 36.4111 14.6045C35.9827 14.3766 35.6387 14.0599 35.3789 13.6543L35.8848 13.1758C36.3542 13.8822 36.9671 14.2445 37.7236 14.2627C38.3981 14.2809 38.9609 14.0758 39.4121 13.6475C39.8678 13.2236 40.1549 12.6449 40.2734 11.9111L40.4512 11.0498C39.7949 11.8018 39.0042 12.1641 38.0791 12.1367C37.3864 12.1185 36.8464 11.8542 36.459 11.3438C36.0762 10.8288 35.8757 10.1292 35.8574 9.24512C35.8301 8.42936 35.9668 7.62272 36.2676 6.8252C36.5684 6.02767 36.9762 5.43066 37.4912 5.03418C38.0107 4.63314 38.5986 4.44173 39.2549 4.45996ZM36.7119 8.4248L36.6709 9.06055C36.6572 9.80794 36.7871 10.3867 37.0605 10.7969C37.334 11.2025 37.7373 11.4144 38.2705 11.4326C38.7262 11.4508 39.1523 11.3438 39.5488 11.1113C39.9453 10.8789 40.2871 10.5348 40.5742 10.0791L41.1553 6.62695C41.0322 6.1849 40.818 5.83626 40.5127 5.58105C40.2119 5.32129 39.8245 5.18457 39.3506 5.1709C38.6533 5.14811 38.0745 5.41699 37.6143 5.97754C37.1585 6.53809 36.8577 7.35384 36.7119 8.4248ZM44.0811 12H43.2607L44.5527 4.60352H45.3662L44.0811 12ZM44.7783 2.46387C44.8011 2.16764 44.9971 1.98079 45.3662 1.90332C45.5439 1.93522 45.6693 1.99219 45.7422 2.07422C45.8197 2.15169 45.8698 2.28158 45.8926 2.46387C45.847 2.63704 45.7809 2.76465 45.6943 2.84668C45.6077 2.92415 45.4779 2.98112 45.3047 3.01758C44.9355 2.96289 44.7601 2.77832 44.7783 2.46387ZM50.8896 12C50.8669 11.8268 50.86 11.6536 50.8691 11.4805L50.9307 10.9678C50.5889 11.3369 50.1969 11.6263 49.7549 11.8359C49.3174 12.0456 48.8434 12.1458 48.333 12.1367C47.7087 12.1276 47.2005 11.9316 46.8086 11.5488C46.4212 11.1615 46.248 10.6761 46.2891 10.0928C46.3255 9.60514 46.4919 9.18359 46.7881 8.82812C47.0889 8.4681 47.515 8.1901 48.0664 7.99414C48.6178 7.79362 49.2354 7.69336 49.9189 7.69336L51.4297 7.7002L51.5527 6.85254C51.6074 6.34668 51.498 5.94108 51.2246 5.63574C50.9512 5.3304 50.5479 5.16862 50.0146 5.15039C49.4769 5.14128 49.0075 5.27572 48.6064 5.55371C48.21 5.82715 47.9616 6.18945 47.8613 6.64062H47.0615C47.1527 5.99349 47.4854 5.46712 48.0596 5.06152C48.6338 4.65137 49.3128 4.45085 50.0967 4.45996C50.8577 4.47819 51.4434 4.70833 51.8535 5.15039C52.2682 5.59245 52.4368 6.16667 52.3594 6.87305L51.7441 10.5918L51.6895 11.1865C51.6758 11.4326 51.694 11.6764 51.7441 11.918L51.7305 12H50.8896ZM48.4697 11.4189C48.971 11.4372 49.4495 11.3187 49.9053 11.0635C50.3656 10.8037 50.7461 10.4368 51.0469 9.96289L51.3271 8.3291L50.0215 8.32227C49.1921 8.32227 48.5153 8.47038 47.9912 8.7666C47.4671 9.05827 47.1777 9.47754 47.123 10.0244C47.082 10.4255 47.1868 10.7559 47.4375 11.0156C47.6927 11.2754 48.0368 11.4098 48.4697 11.4189ZM51.6553 1.5L52.6875 1.50684L50.8555 3.40723L50.0898 3.41406L51.6553 1.5ZM59.8721 2.70996L59.5439 4.60352H61.0273L60.9111 5.27344H59.4277L58.6074 10.209L58.5938 10.6328C58.5938 11.1296 58.8216 11.3848 59.2773 11.3984C59.4186 11.403 59.6396 11.387 59.9404 11.3506L59.9062 12.0205C59.6374 12.098 59.3639 12.1322 59.0859 12.123C58.6074 12.1139 58.2588 11.9476 58.04 11.624C57.8213 11.2959 57.7415 10.8219 57.8008 10.2021L58.6143 5.27344H57.2881L57.4111 4.60352H58.7236L59.0586 2.70996H59.8721ZM65.9561 5.29395C65.7783 5.25749 65.5983 5.23698 65.416 5.23242C64.8965 5.23242 64.4202 5.39193 63.9873 5.71094C63.5544 6.02539 63.265 6.42643 63.1191 6.91406L62.2441 12H61.4375L62.7227 4.60352H63.5225L63.2764 5.7793C63.5452 5.3418 63.8688 5.00911 64.2471 4.78125C64.6299 4.55339 65.0492 4.44401 65.5049 4.45312C65.6644 4.45312 65.8512 4.48503 66.0654 4.54883L65.9561 5.29395ZM66.9814 12H66.1611L67.4531 4.60352H68.2666L66.9814 12ZM67.6787 2.46387C67.7015 2.16764 67.8975 1.98079 68.2666 1.90332C68.4443 1.93522 68.5697 1.99219 68.6426 2.07422C68.7201 2.15169 68.7702 2.28158 68.793 2.46387C68.7474 2.63704 68.6813 2.76465 68.5947 2.84668C68.5081 2.92415 68.3783 2.98112 68.2051 3.01758C67.8359 2.96289 67.6605 2.77832 67.6787 2.46387ZM65.71 13.5107C65.7236 13.3604 65.7852 13.2305 65.8945 13.1211C66.0039 13.0117 66.1383 12.9548 66.2979 12.9502C66.4574 12.9456 66.5872 12.998 66.6875 13.1074C66.7878 13.2168 66.8333 13.3512 66.8242 13.5107C66.8105 13.6657 66.7467 13.7933 66.6328 13.8936C66.5234 13.9984 66.3913 14.0531 66.2363 14.0576C66.0768 14.0622 65.9469 14.012 65.8467 13.9072C65.7464 13.8024 65.7008 13.6702 65.71 13.5107ZM75.4307 2.70996L75.1025 4.60352H76.5859L76.4697 5.27344H74.9863L74.166 10.209L74.1523 10.6328C74.1523 11.1296 74.3802 11.3848 74.8359 11.3984C74.9772 11.403 75.1982 11.387 75.499 11.3506L75.4648 12.0205C75.196 12.098 74.9225 12.1322 74.6445 12.123C74.166 12.1139 73.8174 11.9476 73.5986 11.624C73.3799 11.2959 73.3001 10.8219 73.3594 10.2021L74.1729 5.27344H72.8467L72.9697 4.60352H74.2822L74.6172 2.70996H75.4307ZM77.0576 8.2334C77.1396 7.5179 77.3584 6.86393 77.7139 6.27148C78.0693 5.67448 78.5114 5.22103 79.04 4.91113C79.5732 4.60124 80.1497 4.45312 80.7695 4.4668C81.3802 4.47591 81.8997 4.64453 82.3281 4.97266C82.7611 5.29622 83.0755 5.74056 83.2715 6.30566C83.472 6.86621 83.5404 7.48828 83.4766 8.17188L83.4629 8.30176C83.3262 9.46842 82.9115 10.4049 82.2188 11.1113C81.5306 11.8177 80.7035 12.1595 79.7373 12.1367C78.9079 12.123 78.2448 11.8177 77.748 11.2207C77.2513 10.6237 77.0075 9.83529 77.0166 8.85547L77.0371 8.46582L77.0576 8.2334ZM77.8506 8.46582C77.7913 9.00814 77.8301 9.50944 77.9668 9.96973C78.1081 10.4255 78.3314 10.7832 78.6367 11.043C78.9421 11.3027 79.3226 11.4395 79.7783 11.4531C80.2705 11.4622 80.7194 11.3369 81.125 11.0771C81.5352 10.8174 81.8724 10.4505 82.1367 9.97656C82.401 9.5026 82.5719 8.97852 82.6494 8.4043L82.6699 8.17871C82.752 7.29915 82.6152 6.58138 82.2598 6.02539C81.9089 5.46484 81.3984 5.17773 80.7285 5.16406C79.9993 5.14128 79.3682 5.42383 78.835 6.01172C78.3063 6.59505 77.9827 7.37207 77.8643 8.34277L77.8506 8.46582ZM80.8447 1.92383H81.624L83.1279 3.57812H82.2598L81.2275 2.40918L79.7852 3.57812L78.7666 3.57129L80.8447 1.92383ZM84.1533 0.864258H85.1377L83.6543 2.42969H82.9023L84.1533 0.864258ZM85.4521 12H84.6318L85.9238 4.60352H86.7373L85.4521 12ZM86.1494 2.46387C86.1722 2.16764 86.3682 1.98079 86.7373 1.90332C86.915 1.93522 87.0404 1.99219 87.1133 2.07422C87.1908 2.15169 87.2409 2.28158 87.2637 2.46387C87.2181 2.63704 87.152 2.76465 87.0654 2.84668C86.9788 2.92415 86.849 2.98112 86.6758 3.01758C86.3066 2.96289 86.1312 2.77832 86.1494 2.46387ZM93.9014 2.70996L93.5732 4.60352H95.0566L94.9404 5.27344H93.457L92.6367 10.209L92.623 10.6328C92.623 11.1296 92.8509 11.3848 93.3066 11.3984C93.4479 11.403 93.6689 11.387 93.9697 11.3506L93.9355 12.0205C93.6667 12.098 93.3932 12.1322 93.1152 12.123C92.6367 12.1139 92.2881 11.9476 92.0693 11.624C91.8506 11.2959 91.7708 10.8219 91.8301 10.2021L92.6436 5.27344H91.3174L91.4404 4.60352H92.7529L93.0879 2.70996H93.9014ZM97.292 5.85449C98.0029 4.91113 98.8415 4.44857 99.8076 4.4668C100.519 4.48503 101.036 4.7334 101.359 5.21191C101.683 5.69043 101.797 6.34896 101.701 7.1875L100.895 12H100.088L100.895 7.17383C100.922 6.91406 100.926 6.66341 100.908 6.42188C100.831 5.61068 100.389 5.19368 99.582 5.1709C99.1035 5.16178 98.6569 5.30534 98.2422 5.60156C97.8275 5.89323 97.4629 6.33529 97.1484 6.92773L96.2734 12H95.4668L97.292 1.5H98.0986L97.292 5.85449ZM103.896 12H103.075L104.367 4.60352H105.181L103.896 12ZM104.593 2.46387C104.616 2.16764 104.812 1.98079 105.181 1.90332C105.358 1.93522 105.484 1.99219 105.557 2.07422C105.634 2.15169 105.684 2.28158 105.707 2.46387C105.661 2.63704 105.595 2.76465 105.509 2.84668C105.422 2.92415 105.292 2.98112 105.119 3.01758C104.75 2.96289 104.575 2.77832 104.593 2.46387ZM109.036 12.1367C108.444 12.1276 107.931 11.9635 107.498 11.6445C107.065 11.321 106.746 10.8835 106.541 10.332C106.34 9.77604 106.27 9.17676 106.329 8.53418L106.35 8.30176C106.413 7.61816 106.616 6.96875 106.958 6.35352C107.3 5.73372 107.733 5.26204 108.257 4.93848C108.781 4.61035 109.341 4.45312 109.938 4.4668C110.49 4.47591 110.955 4.6263 111.333 4.91797C111.716 5.20964 111.994 5.61523 112.167 6.13477C112.34 6.6543 112.395 7.22852 112.331 7.85742L112.276 8.35645H107.156L107.136 8.52051C107.067 9.01725 107.104 9.49349 107.245 9.94922C107.386 10.4004 107.617 10.7604 107.936 11.0293C108.259 11.2936 108.646 11.4303 109.098 11.4395C109.535 11.4531 109.929 11.3688 110.28 11.1865C110.631 11.0042 110.955 10.7604 111.251 10.4551L111.729 10.8447C111.397 11.2731 111 11.599 110.54 11.8223C110.084 12.041 109.583 12.1458 109.036 12.1367ZM109.897 5.16406C109.305 5.14128 108.774 5.35091 108.305 5.79297C107.835 6.23503 107.482 6.8571 107.245 7.65918L111.538 7.66602L111.559 7.56348C111.641 6.91634 111.527 6.36035 111.217 5.89551C110.907 5.42611 110.467 5.18229 109.897 5.16406ZM112.379 3.46191H111.6L110.485 2.2041L108.947 3.45508H108.018L110.034 1.80762H110.937L112.379 3.46191ZM112.249 2.60059L112.358 1.83496L112.632 1.80762C113.097 1.76204 113.345 1.5957 113.377 1.30859C113.395 1.04427 113.197 0.889323 112.782 0.84375L112.399 0.823242L112.481 0.317383C112.992 0.335612 113.375 0.429036 113.63 0.597656C113.885 0.766276 114.006 0.994141 113.992 1.28125C113.96 1.82812 113.591 2.14941 112.885 2.24512L112.83 2.60059H112.249ZM118.094 11.0703C117.506 11.8086 116.695 12.1641 115.66 12.1367C114.963 12.123 114.443 11.8724 114.102 11.3848C113.76 10.8926 113.637 10.2113 113.732 9.34082L114.525 4.60352H115.332L114.546 9.36133C114.519 9.60742 114.516 9.85124 114.539 10.0928C114.571 10.512 114.696 10.8356 114.915 11.0635C115.134 11.2913 115.435 11.4121 115.817 11.4258C116.364 11.4486 116.87 11.3232 117.335 11.0498C117.8 10.7718 118.101 10.4095 118.237 9.96289L119.153 4.60352H119.974L118.688 12H117.896L118.094 11.0703Z" fill="#EB5757"/>
<g filter="url(#filter1_d)">
<rect x="-203" y="-14" width="230" height="232" rx="8" fill="white"/>
<path d="M1.20078 7.21818L3.39488 8.83882C3.8213 9.15379 4.41943 9.08125 4.7582 8.67347L10.8008 1.39999" stroke="#27AE60" stroke-linecap="round"/>
</g>
<defs>
<filter id="filter0_d" x="-367" y="-446" width="996" height="1747" filterUnits="userSpaceOnUse" color-interpolation-filters="sRGB">
<feFlood flood-opacity="0" result="BackgroundImageFix"/>
<feColorMatrix in="SourceAlpha" type="matrix" values="0 0 0 0 0 0 0 0 0 0 0 0 0 0 0 0 0 0 127 0"/>
<feOffset dy="2"/>
<feGaussianBlur stdDeviation="4"/>
<feColorMatrix type="matrix" values="0 0 0 0 0 0 0 0 0 0 0 0 0 0 0 0 0 0 0.12 0"/>
<feBlend mode="normal" in2="BackgroundImageFix" result="effect1_dropShadow"/>
<feBlend mode="normal" in="SourceGraphic" in2="effect1_dropShadow" result="shape"/>
</filter>
<filter id="filter1_d" x="-241" y="-28" width="306" height="308" filterUnits="userSpaceOnUse" color-interpolation-filters="sRGB">
<feFlood flood-opacity="0" result="BackgroundImageFix"/>
<feColorMatrix in="SourceAlpha" type="matrix" values="0 0 0 0 0 0 0 0 0 0 0 0 0 0 0 0 0 0 127 0"/>
<feOffset dy="24"/>
<feGaussianBlur stdDeviation="19"/>
<feColorMatrix type="matrix" values="0 0 0 0 0 0 0 0 0 0 0 0 0 0 0 0 0 0 0.1 0"/>
<feBlend mode="normal" in2="BackgroundImageFix" result="effect1_dropShadow"/>
<feBlend mode="normal" in="SourceGraphic" in2="effect1_dropShadow" result="shape"/>
</filter>
</defs>
</svg>
