<svg width="25" height="24" viewBox="0 0 25 24" fill="none" xmlns="http://www.w3.org/2000/svg">
<path d="M17.2143 22H7.21429C6.80429 22 6.46429 21.66 6.46429 21.25C6.46429 20.84 6.80429 20.5 7.21429 20.5H17.2143C17.6243 20.5 17.9643 20.84 17.9643 21.25C17.9643 21.66 17.6243 22 17.2143 22Z" fill="#4DC4FE"/>
<path d="M20.5643 5.52001L16.5643 8.38001C16.0343 8.76001 15.2743 8.53001 15.0443 7.92001L13.1543 2.88001C12.8343 2.01001 11.6043 2.01001 11.2843 2.88001L9.3843 7.91001C9.1543 8.53001 8.4043 8.76001 7.8743 8.37001L3.8743 5.51001C3.0743 4.95001 2.0143 5.74001 2.3443 6.67001L6.5043 18.32C6.6443 18.72 7.0243 18.98 7.4443 18.98H16.9743C17.3943 18.98 17.7743 18.71 17.9143 18.32L22.0743 6.67001C22.4143 5.74001 21.3543 4.95001 20.5643 5.52001ZM14.7143 14.75H9.7143C9.3043 14.75 8.9643 14.41 8.9643 14C8.9643 13.59 9.3043 13.25 9.7143 13.25H14.7143C15.1243 13.25 15.4643 13.59 15.4643 14C15.4643 14.41 15.1243 14.75 14.7143 14.75Z" fill="#4DC4FE"/>
</svg>
