<svg width="18" height="19" viewBox="0 0 18 19" fill="none" xmlns="http://www.w3.org/2000/svg">
<path d="M8.2875 11.7125L6.9 13.1C6.6075 13.3925 6.1425 13.3925 5.8425 13.1075C5.76 13.025 5.6775 12.95 5.595 12.8675C4.8225 12.0875 4.125 11.27 3.5025 10.415C2.8875 9.56 2.3925 8.705 2.0325 7.8575C1.68 7.0025 1.5 6.185 1.5 5.405C1.5 4.895 1.59 4.4075 1.77 3.9575C1.95 3.5 2.235 3.08 2.6325 2.705C3.1125 2.2325 3.6375 2 4.1925 2C4.4025 2 4.6125 2.045 4.8 2.135C4.995 2.225 5.1675 2.36 5.3025 2.555L7.0425 5.0075C7.1775 5.195 7.275 5.3675 7.3425 5.5325C7.41 5.69 7.4475 5.8475 7.4475 5.99C7.4475 6.17 7.395 6.35 7.29 6.5225C7.1925 6.695 7.05 6.875 6.87 7.055L6.3 7.6475C6.2175 7.73 6.18 7.8275 6.18 7.9475C6.18 8.0075 6.1875 8.06 6.2025 8.12C6.225 8.18 6.2475 8.225 6.2625 8.27C6.3975 8.5175 6.63 8.84 6.96 9.23C7.2975 9.62 7.6575 10.0175 8.0475 10.415C8.1225 10.49 8.205 10.565 8.28 10.64C8.58 10.9325 8.5875 11.4125 8.2875 11.7125Z" fill="white"/>
<path d="M16.4775 14.2473C16.4775 14.4573 16.44 14.6748 16.365 14.8848C16.3425 14.9448 16.32 15.0048 16.29 15.0648C16.1625 15.3348 15.9975 15.5898 15.78 15.8298C15.4125 16.2348 15.0075 16.5273 14.55 16.7148C14.5425 16.7148 14.535 16.7223 14.5275 16.7223C14.085 16.9023 13.605 16.9998 13.0875 16.9998C12.3225 16.9998 11.505 16.8198 10.6425 16.4523C9.78001 16.0848 8.91751 15.5898 8.06251 14.9673C7.77001 14.7498 7.47751 14.5323 7.20001 14.2998L9.65251 11.8473C9.86251 12.0048 10.05 12.1248 10.2075 12.2073C10.245 12.2223 10.29 12.2448 10.3425 12.2673C10.4025 12.2898 10.4625 12.2973 10.53 12.2973C10.6575 12.2973 10.755 12.2523 10.8375 12.1698L11.4075 11.6073C11.595 11.4198 11.775 11.2773 11.9475 11.1873C12.12 11.0823 12.2925 11.0298 12.48 11.0298C12.6225 11.0298 12.7725 11.0598 12.9375 11.1273C13.1025 11.1948 13.275 11.2923 13.4625 11.4198L15.945 13.1823C16.14 13.3173 16.275 13.4748 16.3575 13.6623C16.4325 13.8498 16.4775 14.0373 16.4775 14.2473Z" fill="white"/>
</svg>
