<svg width="19" height="16" viewBox="0 0 19 16" fill="none" xmlns="http://www.w3.org/2000/svg">
<path fill-rule="evenodd" clip-rule="evenodd" d="M18.9521 2.12202C18.2553 2.43155 17.5055 2.64001 16.7191 2.73413C17.5219 2.25278 18.1385 1.49096 18.4284 0.583211C17.678 1.02919 16.8448 1.35199 15.9598 1.52696C15.2504 0.771458 14.239 0.29895 13.1216 0.29895C10.9744 0.29895 9.23348 2.0399 9.23348 4.18703C9.23348 4.49151 9.26822 4.7884 9.33455 5.0733C6.1028 4.91158 3.23807 3.3633 1.32024 1.01087C0.985444 1.58508 0.79404 2.25279 0.79404 2.96534C0.79404 4.31401 1.47943 5.50412 2.52362 6.20151C1.88561 6.1813 1.28676 6.00631 0.761822 5.7151V5.76374C0.761822 7.64809 2.10291 9.21911 3.8805 9.57728C3.55454 9.66572 3.2109 9.71373 2.85652 9.71373C2.60574 9.71373 2.36191 9.68909 2.12439 9.64361C2.61901 11.1881 4.05548 12.3125 5.75663 12.3441C4.42628 13.3864 2.74977 14.0086 0.927958 14.0086C0.613374 14.0086 0.303845 13.9903 0 13.9537C1.72074 15.0566 3.76427 15.7009 5.96004 15.7009C13.1115 15.7009 17.0223 9.77626 17.0223 4.63869C17.0223 4.47003 17.0191 4.302 17.0109 4.13587C17.7715 3.58629 18.431 2.90153 18.9521 2.12202Z" fill="white"/>
</svg>
