<svg width="21" height="14" viewBox="0 0 21 14" fill="none" xmlns="http://www.w3.org/2000/svg">
<path fill-rule="evenodd" clip-rule="evenodd" d="M19.8617 1.07183C20.1723 1.38224 20.3961 1.76856 20.5108 2.1923C21.1714 4.85 21.0187 9.04744 20.5236 11.8077C20.4089 12.2314 20.1851 12.6178 19.8745 12.9282C19.564 13.2386 19.1775 13.4623 18.7535 13.5769C17.2015 14 10.9549 14 10.9549 14C10.9549 14 4.70824 14 3.1562 13.5769C2.73225 13.4623 2.34574 13.2386 2.03518 12.9282C1.72462 12.6178 1.50083 12.2314 1.38611 11.8077C0.721685 9.16154 0.903825 4.96154 1.37328 2.20513C1.488 1.78138 1.71179 1.39506 2.02235 1.08465C2.33291 0.774239 2.71942 0.550561 3.14337 0.435901C4.69541 0.0128174 10.942 0 10.942 0C10.942 0 17.1887 0 18.7407 0.423075C19.1646 0.537743 19.5511 0.761421 19.8617 1.07183ZM14.1359 7L8.95389 9.99999V3.99999L14.1359 7Z" fill="white"/>
</svg>
