<svg width="20" height="20" viewBox="0 0 20 20" fill="none" xmlns="http://www.w3.org/2000/svg">
<path d="M16.9566 5.10868H3.04354C2.26093 5.10868 1.63049 4.47825 1.63049 3.69564C1.63049 2.91303 2.26093 2.28259 3.04354 2.28259H16.9566C17.7392 2.28259 18.3696 2.91303 18.3696 3.69564C18.3696 4.47825 17.7392 5.10868 16.9566 5.10868ZM18.3696 9.99998C18.3696 9.21738 17.7392 8.58694 16.9566 8.58694H3.04354C2.26093 8.58694 1.63049 9.21738 1.63049 9.99998C1.63049 10.7826 2.26093 11.413 3.04354 11.413H16.9566C17.7392 11.413 18.3696 10.7826 18.3696 9.99998ZM18.3696 16.3043C18.3696 15.5217 17.7392 14.8913 16.9566 14.8913H3.04354C2.26093 14.8913 1.63049 15.5217 1.63049 16.3043C1.63049 17.0869 2.26093 17.7174 3.04354 17.7174H16.9566C17.7392 17.7174 18.3696 17.0869 18.3696 16.3043Z" fill="#484848"/>
</svg>
