<svg width="25" height="24" viewBox="0 0 25 24" fill="none" xmlns="http://www.w3.org/2000/svg">
<path d="M11.5 2H9.5C4.5 2 2.5 4 2.5 9V15C2.5 20 4.5 22 9.5 22H15.5C20.5 22 22.5 20 22.5 15V13" stroke="#8AC02C" stroke-width="1.5" stroke-linecap="round" stroke-linejoin="round"/>
<path d="M16.5399 3.02123L8.65988 10.9012C8.35988 11.2012 8.05988 11.7912 7.99988 12.2212L7.56988 15.2312C7.40988 16.3212 8.17988 17.0812 9.26988 16.9312L12.2799 16.5012C12.6999 16.4412 13.2899 16.1412 13.5999 15.8412L21.4799 7.96123C22.8399 6.60123 23.4799 5.02123 21.4799 3.02123C19.4799 1.02123 17.8999 1.66123 16.5399 3.02123Z" stroke="#8AC02C" stroke-width="1.5" stroke-miterlimit="10" stroke-linecap="round" stroke-linejoin="round"/>
<path d="M15.4102 4.14844C16.0802 6.53844 17.9502 8.40844 20.3502 9.08844" stroke="#8AC02C" stroke-width="1.5" stroke-miterlimit="10" stroke-linecap="round" stroke-linejoin="round"/>
</svg>
