<svg width="18" height="18" viewBox="0 0 18 18" fill="none" xmlns="http://www.w3.org/2000/svg">
<path d="M10.4416 1.92812L11.9083 4.86146C12.1083 5.26979 12.6416 5.66146 13.0916 5.73646L15.7499 6.17812C17.4499 6.46146 17.8499 7.69479 16.6249 8.91146L14.5583 10.9781C14.2083 11.3281 14.0166 12.0031 14.1249 12.4865L14.7166 15.0448C15.1833 17.0698 14.1083 17.8531 12.3166 16.7948L9.82493 15.3198C9.37493 15.0531 8.63326 15.0531 8.17493 15.3198L5.68326 16.7948C3.89992 17.8531 2.81659 17.0615 3.28326 15.0448L3.87492 12.4865C3.98326 12.0031 3.79159 11.3281 3.44159 10.9781L1.37492 8.91146C0.158257 7.69479 0.549924 6.46146 2.24992 6.17812L4.90826 5.73646C5.34992 5.66146 5.88326 5.26979 6.08326 4.86146L7.54993 1.92812C8.34993 0.336458 9.64993 0.336458 10.4416 1.92812Z" fill="#F49C1C"/>
</svg>
