<svg width="14" height="14" viewBox="0 0 14 14" fill="none" xmlns="http://www.w3.org/2000/svg">
<path d="M6.99992 0.433594C3.32659 0.433594 0.333252 3.42693 0.333252 7.10026C0.333252 10.7736 3.32659 13.7669 6.99992 13.7669C10.6733 13.7669 13.6666 10.7736 13.6666 7.10026C13.6666 3.42693 10.6733 0.433594 6.99992 0.433594ZM6.49992 4.43359C6.49992 4.16026 6.72659 3.93359 6.99992 3.93359C7.27325 3.93359 7.49992 4.16026 7.49992 4.43359V7.76693C7.49992 8.04026 7.27325 8.26693 6.99992 8.26693C6.72659 8.26693 6.49992 8.04026 6.49992 7.76693V4.43359ZM7.61325 10.0203C7.57992 10.1069 7.53325 10.1736 7.47325 10.2403C7.40659 10.3003 7.33325 10.3469 7.25325 10.3803C7.17325 10.4136 7.08659 10.4336 6.99992 10.4336C6.91325 10.4336 6.82659 10.4136 6.74659 10.3803C6.66659 10.3469 6.59325 10.3003 6.52659 10.2403C6.46659 10.1736 6.41992 10.1069 6.38659 10.0203C6.35325 9.94026 6.33325 9.85359 6.33325 9.76693C6.33325 9.68026 6.35325 9.59359 6.38659 9.51359C6.41992 9.43359 6.46659 9.36026 6.52659 9.29359C6.59325 9.23359 6.66659 9.18693 6.74659 9.15359C6.90659 9.08693 7.09325 9.08693 7.25325 9.15359C7.33325 9.18693 7.40659 9.23359 7.47325 9.29359C7.53325 9.36026 7.57992 9.43359 7.61325 9.51359C7.64659 9.59359 7.66659 9.68026 7.66659 9.76693C7.66659 9.85359 7.64659 9.94026 7.61325 10.0203Z" fill="#73B009"/>
</svg>
