<svg width="22" height="20" viewBox="0 0 22 20" fill="none" xmlns="http://www.w3.org/2000/svg">
<path d="M19.04 4.81969L13.28 0.789694C11.71 -0.310306 9.29999 -0.250306 7.78999 0.919694L2.77999 4.82969C1.77999 5.60969 0.98999 7.20969 0.98999 8.46969V15.3697C0.98999 17.9197 3.05999 19.9997 5.60999 19.9997H16.39C18.94 19.9997 21.01 17.9297 21.01 15.3797V8.59969C21.01 7.24969 20.14 5.58969 19.04 4.81969ZM11.75 15.9997C11.75 16.4097 11.41 16.7497 11 16.7497C10.59 16.7497 10.25 16.4097 10.25 15.9997V12.9997C10.25 12.5897 10.59 12.2497 11 12.2497C11.41 12.2497 11.75 12.5897 11.75 12.9997V15.9997Z" fill="#73B009"/>
</svg>
