<svg width="39" height="39" xmlns="http://www.w3.org/2000/svg" data-name="Layer 1">
 <title>instagram-logo-black-and-white</title>

 <g>
  <title>Layer 1</title>
  <path fill="#ffffff" stroke-width="0" stroke="#ff0000" id="svg_1" d="m19.31407,4.33898c-4.23375,0 -4.76645,0.01774 -6.42799,0.09377a11.43543,11.42448 0 0 0 -3.78221,0.7248a7.57458,7.56732 0 0 0 -2.75993,1.79426a7.67604,7.66869 0 0 0 -1.80105,2.75728a11.39484,11.38393 0 0 0 -0.72296,3.78113c-0.07356,1.65994 -0.09386,2.18961 -0.09386,6.4193s0.01776,4.75682 0.09386,6.4193a11.43543,11.42448 0 0 0 0.7255,3.77859a7.64053,7.63321 0 0 0 1.79598,2.75728a7.64307,7.63575 0 0 0 2.75993,1.79933a11.45826,11.44728 0 0 0 3.78475,0.72227c1.66154,0.07603 2.19171,0.09377 6.42545,0.09377s4.76138,-0.01774 6.42545,-0.09377a11.45826,11.44728 0 0 0 3.78475,-0.72227a8.00074,7.99308 0 0 0 4.56605,-4.56168a11.56734,11.55626 0 0 0 0.7255,-3.77859c0.07356,-1.65994 0.09386,-2.18961 0.09386,-6.4193s-0.02029,-4.75935 -0.09386,-6.4193a11.58256,11.57146 0 0 0 -0.7255,-3.78113a7.63546,7.62814 0 0 0 -1.79852,-2.75728a7.55174,7.54451 0 0 0 -2.75993,-1.79426a11.45065,11.43968 0 0 0 -3.7949,-0.71973c-1.66407,-0.07603 -2.19171,-0.09377 -6.42545,-0.09377l0.00507,0zm-1.40026,2.80543l1.40026,0c4.16018,0 4.6523,0.01521 6.29608,0.09123a8.62477,8.61651 0 0 1 2.89437,0.53473a4.81972,4.81511 0 0 1 1.79091,1.16576a4.86031,4.85566 0 0 1 1.16688,1.78919a8.62477,8.61651 0 0 1 0.53524,2.8916c0.0761,1.63967 0.09132,2.13385 0.09132,6.29005s-0.01522,4.64785 -0.09132,6.29005a8.59686,8.58863 0 0 1 -0.53524,2.88906a5.16218,5.15723 0 0 1 -2.95779,2.95242a8.53345,8.52527 0 0 1 -2.89437,0.53726c-1.64124,0.07603 -2.1359,0.09123 -6.29608,0.09123s-4.65484,-0.01521 -6.29862,-0.09123a8.62477,8.61651 0 0 1 -2.89437,-0.53726a4.81972,4.81511 0 0 1 -1.79344,-1.16323a4.81972,4.81511 0 0 1 -1.16434,-1.78919a8.62477,8.61651 0 0 1 -0.53778,-2.8916c-0.07356,-1.6422 -0.08878,-2.13385 -0.08878,-6.29258s0.01522,-4.64785 0.08878,-6.29005a8.54867,8.54048 0 0 1 0.53778,-2.8916a4.81972,4.81511 0 0 1 1.16434,-1.78919a4.85016,4.84552 0 0 1 1.79344,-1.16576a8.68057,8.67226 0 0 1 2.89437,-0.53726c1.43831,-0.06336 1.99384,-0.08363 4.89836,-0.08617l0,0.00253zm9.71808,2.58495a1.87208,1.87029 0 1 0 1.87208,1.86775a1.86955,1.86775 0 0 0 -1.87208,-1.86775zm-8.31783,2.18454a8.00328,7.99561 0 1 0 8.00328,7.99561a8.00581,7.99815 0 0 0 -8.00328,-7.99561zm0,2.80543a5.19515,5.19018 0 1 1 -5.18754,5.19018a5.19515,5.19018 0 0 1 5.18754,-5.18004l0,-0.01014z"/>
 </g>
</svg>