<svg width="22" height="23" viewBox="0 0 22 23" fill="none" xmlns="http://www.w3.org/2000/svg">
<path d="M15.3084 18.5853H6.69169C6.01336 18.5853 5.32586 18.0995 5.09669 17.467L1.30169 6.84279C0.834188 5.50445 1.17336 4.89029 1.54002 4.61529C1.90669 4.34029 2.59419 4.17529 3.74919 5.00029L7.32419 7.55779C7.43419 7.62195 7.53502 7.64945 7.60836 7.63112C7.69086 7.60362 7.75502 7.53029 7.80086 7.40195L9.41419 3.10279C9.90002 1.81945 10.615 1.62695 11 1.62695C11.385 1.62695 12.1 1.81945 12.5859 3.10279L14.1992 7.40195C14.245 7.52112 14.3092 7.60362 14.3917 7.63112C14.4742 7.65862 14.575 7.63112 14.6759 7.54862L18.0309 5.15612C19.2592 4.27612 19.9742 4.45029 20.3684 4.73445C20.7534 5.02779 21.1109 5.67862 20.6067 7.09945L16.9034 17.467C16.6742 18.0995 15.9867 18.5853 15.3084 18.5853ZM2.45669 5.82529C2.47502 5.95362 2.51169 6.13695 2.60336 6.37529L6.39836 16.9995C6.43502 17.0911 6.60002 17.2103 6.69169 17.2103H15.3084C15.4092 17.2103 15.5742 17.0911 15.6017 16.9995L19.305 6.64112C19.4334 6.29279 19.47 6.05445 19.4792 5.91695C19.3417 5.96279 19.1309 6.06362 18.8284 6.28362L15.4734 8.67612C15.015 8.99695 14.4742 9.09779 13.9884 8.95112C13.5025 8.80445 13.1084 8.41945 12.9067 7.89695L11.2934 3.59779C11.1742 3.27695 11.0642 3.12112 11 3.04779C10.9359 3.12112 10.8259 3.27695 10.7067 3.58862L9.09335 7.88779C8.90086 8.41029 8.50669 8.79529 8.01169 8.94195C7.52585 9.08862 6.97585 8.98779 6.52669 8.66695L2.95169 6.10945C2.74086 5.96279 2.57586 5.87112 2.45669 5.82529Z" fill="#73B009"/>
<path d="M16.0417 21.3535H5.95837C5.58254 21.3535 5.27087 21.0418 5.27087 20.666C5.27087 20.2902 5.58254 19.9785 5.95837 19.9785H16.0417C16.4175 19.9785 16.7292 20.2902 16.7292 20.666C16.7292 21.0418 16.4175 21.3535 16.0417 21.3535Z" fill="#73B009"/>
<path d="M13.2917 14.0215H8.70837C8.33254 14.0215 8.02087 13.7098 8.02087 13.334C8.02087 12.9582 8.33254 12.6465 8.70837 12.6465H13.2917C13.6675 12.6465 13.9792 12.9582 13.9792 13.334C13.9792 13.7098 13.6675 14.0215 13.2917 14.0215Z" fill="#73B009"/>
</svg>
