<svg width="85" height="85" viewBox="0 0 85 85" fill="none" xmlns="http://www.w3.org/2000/svg">
<path d="M6.64069 13.9946H73.0469C76.6993 13.9946 79.6876 16.9829 79.6876 20.6353V28.6041C79.6876 32.2566 76.6993 35.2448 73.0469 35.2448H6.64069C2.98827 35.2445 0 32.2562 0 28.604V20.6352C0 16.9829 2.98827 13.9946 6.64069 13.9946Z" fill="#A86A3F"/>
<path d="M21.1836 21.0999L62.754 10.0766C64.1485 9.67816 65.6094 10.5414 66.0078 11.936L72.914 37.436C73.3125 38.8306 72.4492 40.2914 71.0546 40.6899L16.9336 55.0999C15.5391 55.4983 14.0782 54.635 13.6798 53.2405L8.63281 34.514L21.1836 21.0999Z" fill="#3DB39E"/>
<path d="M65.6761 36.639L56.7113 39.0296C55.9809 39.2289 55.2503 38.8303 55.1176 38.0999C54.9183 37.3695 55.3169 36.6389 56.0473 36.5062L63.7504 34.4476L59.6333 19.0414L51.9302 21.1C51.1998 21.2993 50.4692 20.9007 50.3365 20.1703C50.1372 19.4398 50.5358 18.7093 51.2662 18.5766L60.231 16.186C60.9614 15.9867 61.692 16.3853 61.8247 17.1157L66.606 35.0453C66.8049 35.7758 66.4065 36.5062 65.6761 36.639ZM28.4886 46.6664L19.5237 49.057C18.7933 49.2563 18.0627 48.8577 17.93 48.1273L13.1488 30.1976C12.9495 29.4672 13.3481 28.7366 14.0785 28.6039L23.0433 26.2134C23.7737 26.0141 24.5043 26.4127 24.637 27.1431C24.8363 27.8735 24.4377 28.6041 23.7073 28.7368L16.0042 30.7954L20.1213 46.2016L27.8244 44.143C28.5548 43.9437 29.2854 44.3423 29.4181 45.0727C29.6174 45.7367 29.219 46.4671 28.4886 46.6664Z" fill="#78CABB"/>
<path d="M0.531445 30.397C12.3517 23.6235 44.2268 4.96325 44.2268 4.96325C45.4885 4.23284 47.1486 4.63126 47.8792 5.89297L61.1604 28.7367C61.8909 29.9984 61.426 31.5921 60.1643 32.3227L11.5548 60.2133C10.2931 60.9437 8.63297 60.5453 7.90238 59.2836C7.90238 59.2836 4.1837 51.7133 0.464844 45.3382C0.465012 30.397 0.531445 35.311 0.531445 30.397Z" fill="#5ABEAC"/>
<path d="M54.387 28.0062L45.0902 11.9359C44.6918 11.2719 43.8949 11.0726 43.2972 11.471L35.2621 16.1194C34.5981 16.5178 34.3988 17.3147 34.7973 17.9124C35.1957 18.5764 35.9925 18.7757 36.5902 18.3773L43.4965 14.3928L51.4653 28.2053L44.5591 32.1898C43.8951 32.5882 43.6958 33.385 44.0942 33.9828C44.4926 34.6467 45.2895 34.846 45.8872 34.4476L53.9223 29.7992C54.5199 29.4672 54.7854 28.6704 54.387 28.0062ZM19.1918 46.7993L12.2855 50.7837L4.31667 36.971L11.2229 32.9866C11.8869 32.5882 12.0862 31.7913 11.6878 31.1936C11.2894 30.5296 10.4925 30.3303 9.89478 30.7288L1.85969 35.3772C1.19571 35.7756 0.996411 36.5724 1.39484 37.1702L10.6916 53.2405C11.0901 53.9045 11.8869 54.1038 12.4846 53.7054L20.5197 49.057C21.1837 48.6585 21.383 47.8617 20.9846 47.264C20.6526 46.6664 19.8557 46.4007 19.1918 46.7993ZM22.5784 23.3578C17.4652 26.2797 15.7386 32.7875 18.6605 37.9007C21.6487 43.014 28.0901 44.7406 33.2034 41.8187C38.3166 38.8969 40.0432 32.3891 37.1214 27.2758C34.1331 22.2288 27.6917 20.436 22.5784 23.3578ZM54.387 28.0062L45.0902 11.9359C44.6918 11.2719 43.8949 11.0726 43.2972 11.471L35.2621 16.1194C34.5981 16.5178 34.3988 17.3147 34.7973 17.9124C35.1957 18.5764 35.9925 18.7757 36.5902 18.3773L43.4965 14.3928L51.4653 28.2053L44.5591 32.1898C43.8951 32.5882 43.6958 33.385 44.0942 33.9828C44.4926 34.6467 45.2895 34.846 45.8872 34.4476L53.9223 29.7992C54.5199 29.4672 54.7854 28.6704 54.387 28.0062ZM19.1918 46.7993L12.2855 50.7837L4.31667 36.971L11.2229 32.9866C11.8869 32.5882 12.0862 31.7913 11.6878 31.1936C11.2894 30.5296 10.4925 30.3303 9.89478 30.7288L1.85969 35.3772C1.19571 35.7756 0.996411 36.5724 1.39484 37.1702L10.6916 53.2405C11.0901 53.9045 11.8869 54.1038 12.4846 53.7054L20.5197 49.057C21.1837 48.6585 21.383 47.8617 20.9846 47.264C20.6526 46.6664 19.8557 46.4007 19.1918 46.7993ZM22.5784 23.3578C17.4652 26.2797 15.7386 32.7875 18.6605 37.9007C21.6487 43.014 28.0901 44.7406 33.2034 41.8187C38.3166 38.8969 40.0432 32.3891 37.1214 27.2758C34.1331 22.2288 27.6917 20.436 22.5784 23.3578Z" fill="#8CD2C5"/>
<path d="M75.7032 80.4008H6.64069C2.98827 80.4008 0 77.4126 0 73.7602V25.9477H75.7032C79.3556 25.9477 82.3439 28.936 82.3439 32.5884V73.7603C82.3437 77.4126 79.3555 80.4008 75.7032 80.4008ZM5.31255 25.9477H0V20.6351C0 23.557 2.39055 25.9477 5.31255 25.9477Z" fill="#C47E4D"/>
<path d="M82.3436 63.7992H71.7187C66.6054 63.7992 62.4219 59.6156 62.4219 54.5024C62.4219 49.3891 66.6054 45.2056 71.7187 45.2056H82.3436C83.8046 45.2056 84.9999 46.4008 84.9999 47.8618V61.1431C84.9999 62.6039 83.8046 63.7992 82.3436 63.7992Z" fill="#A86A3F"/>
<path d="M71.7188 49.1898C74.6406 49.1898 77.0314 51.5804 77.0314 54.5024C77.0314 57.4244 74.6408 59.8149 71.7188 59.8149C68.797 59.8149 66.4062 57.4244 66.4062 54.5024C66.4062 51.5804 68.797 49.1898 71.7188 49.1898Z" fill="#EFC75E"/>
<path d="M73.0469 58.4866C70.1251 58.4866 67.7344 56.0961 67.7344 53.1741C67.7344 52.0452 68.0664 50.9827 68.6641 50.1194C67.2695 51.0491 66.4062 52.6428 66.4062 54.5022C66.4062 57.4241 68.7968 59.8148 71.7188 59.8148C73.5118 59.8148 75.1055 58.8851 76.1016 57.5569C75.2384 58.1546 74.1758 58.4866 73.0469 58.4866Z" fill="#D7B354"/>
<path d="M75.7032 77.7446H6.64069C2.98827 77.7446 0 74.7563 0 71.1039V73.7602C0 77.4126 2.98827 80.4008 6.64069 80.4008H75.7032C79.3556 80.4008 82.3439 77.4126 82.3439 73.7602V71.1039C82.3437 74.7563 79.3555 77.7446 75.7032 77.7446Z" fill="#B27245"/>
<path d="M75.7032 25.9477H5.31255C2.39055 25.9477 0 23.557 0 20.6351V23.2914C0 26.2132 2.39055 28.604 5.31255 28.604H75.7032C79.3556 28.604 82.3439 31.5922 82.3439 35.2447V32.5884C82.3437 28.936 79.3555 25.9477 75.7032 25.9477Z" fill="#CA8B5F"/>
</svg>
