<svg width="22" height="23" viewBox="0 0 22 23" fill="none" xmlns="http://www.w3.org/2000/svg">
<path d="M13.75 21.3548H8.25004C3.27254 21.3548 1.14587 19.2282 1.14587 14.2507V8.75065C1.14587 3.77315 3.27254 1.64648 8.25004 1.64648H10.0834C10.4592 1.64648 10.7709 1.95815 10.7709 2.33398C10.7709 2.70982 10.4592 3.02148 10.0834 3.02148H8.25004C4.02421 3.02148 2.52087 4.52482 2.52087 8.75065V14.2507C2.52087 18.4765 4.02421 19.9798 8.25004 19.9798H13.75C17.9759 19.9798 19.4792 18.4765 19.4792 14.2507V12.4173C19.4792 12.0415 19.7909 11.7298 20.1667 11.7298C20.5425 11.7298 20.8542 12.0415 20.8542 12.4173V14.2507C20.8542 19.2282 18.7275 21.3548 13.75 21.3548Z" fill="#73B009"/>
<path d="M7.79172 16.7155C7.23255 16.7155 6.71922 16.5139 6.34339 16.1472C5.89422 15.698 5.70172 15.0472 5.80255 14.3597L6.19672 11.6005C6.27005 11.0689 6.61839 10.3814 6.99422 10.0055L14.2176 2.78219C16.0417 0.958021 17.8934 0.958021 19.7176 2.78219C20.7167 3.78135 21.1659 4.79885 21.0742 5.81635C20.9917 6.64135 20.5517 7.44802 19.7176 8.27302L12.4942 15.4964C12.1184 15.8722 11.4309 16.2205 10.8992 16.2939L8.14005 16.688C8.02089 16.7155 7.90172 16.7155 7.79172 16.7155ZM15.1892 3.75385L7.96589 10.9772C7.79172 11.1514 7.59005 11.5547 7.55339 11.793L7.15922 14.5522C7.12255 14.818 7.17755 15.038 7.31505 15.1755C7.45255 15.313 7.67255 15.368 7.93839 15.3314L10.6976 14.9372C10.9359 14.9005 11.3484 14.6989 11.5134 14.5247L18.7367 7.30135C19.3326 6.70552 19.6442 6.17385 19.6901 5.67885C19.7451 5.08302 19.4334 4.45052 18.7367 3.74469C17.2701 2.27802 16.2617 2.69052 15.1892 3.75385Z" fill="#73B009"/>
<path d="M18.1958 9.51173C18.1316 9.51173 18.0675 9.50257 18.0125 9.48423C15.6016 8.8059 13.6858 6.89007 13.0075 4.47923C12.9066 4.11257 13.1175 3.73673 13.4841 3.62673C13.8508 3.5259 14.2266 3.73673 14.3275 4.1034C14.8775 6.0559 16.4266 7.60507 18.3791 8.15507C18.7458 8.2559 18.9566 8.6409 18.8558 9.00757C18.7733 9.31923 18.4983 9.51173 18.1958 9.51173Z" fill="#73B009"/>
</svg>
