<svg width="22" height="23" viewBox="0 0 22 23" fill="none" xmlns="http://www.w3.org/2000/svg">
<path d="M11.1375 18.2375C10.7616 18.2375 10.45 17.9258 10.45 17.55V15.625C10.45 15.2492 10.7616 14.9375 11.1375 14.9375C11.5133 14.9375 11.825 15.2492 11.825 15.625V17.55C11.825 17.9258 11.5133 18.2375 11.1375 18.2375Z" fill="#73B009"/>
<path d="M16.4084 21.3535H5.8667V19.7493C5.8667 18.356 6.9942 17.2285 8.38753 17.2285H13.8875C15.2809 17.2285 16.4084 18.356 16.4084 19.7493V21.3535ZM7.2417 19.9785H15.0334V19.7493C15.0334 19.1168 14.52 18.6035 13.8875 18.6035H8.38753C7.75503 18.6035 7.2417 19.1168 7.2417 19.7493V19.9785Z" fill="#73B009"/>
<path d="M16.6374 21.3535H5.63745C5.26162 21.3535 4.94995 21.0418 4.94995 20.666C4.94995 20.2902 5.26162 19.9785 5.63745 19.9785H16.6374C17.0133 19.9785 17.3249 20.2902 17.3249 20.666C17.3249 21.0418 17.0133 21.3535 16.6374 21.3535Z" fill="#73B009"/>
<path d="M16.8942 11.9037C16.7017 11.9037 16.5092 11.8212 16.3717 11.6653C16.1975 11.4637 16.1517 11.1795 16.2617 10.9412C16.5733 10.2262 16.7292 9.46534 16.7292 8.66784V5.91784C16.7292 5.597 16.6742 5.28534 16.5642 4.95534C16.555 4.92784 16.5458 4.89117 16.5367 4.85451C16.5092 4.71701 16.5 4.57951 16.5 4.45117C16.5 4.07534 16.8117 3.76367 17.1875 3.76367H17.7375C19.3783 3.76367 20.7167 5.13867 20.7167 6.8345C20.7167 8.237 20.1392 9.62117 19.14 10.6203C19.1217 10.6387 19.0667 10.6845 19.0575 10.6937C18.5167 11.1428 17.9025 11.647 17.0775 11.8762C17.0133 11.8945 16.9583 11.9037 16.8942 11.9037ZM18.04 5.16617C18.0858 5.41367 18.1042 5.67034 18.1042 5.91784V8.66784C18.1042 9.04367 18.0767 9.40117 18.0217 9.76784C18.0767 9.722 18.1225 9.68534 18.1775 9.6395C18.9108 8.90617 19.3417 7.8795 19.3417 6.8345C19.3417 6.0095 18.7825 5.31284 18.04 5.16617Z" fill="#73B009"/>
<path d="M5.11499 11.8674C5.04166 11.8674 4.97749 11.8583 4.90416 11.8308C4.15249 11.5924 3.44666 11.1524 2.85999 10.5658C1.80583 9.40162 1.28333 8.12745 1.28333 6.77995C1.28333 5.11161 2.59416 3.80078 4.26249 3.80078H4.85833C5.08749 3.80078 5.30749 3.91995 5.43582 4.11245C5.56416 4.30495 5.58249 4.55245 5.49082 4.76328C5.34416 5.09328 5.27082 5.46911 5.27082 5.86328V8.61328C5.27082 9.40162 5.42666 10.1716 5.74749 10.9049C5.85749 11.1525 5.80249 11.4366 5.62832 11.6383C5.49082 11.7849 5.30749 11.8674 5.11499 11.8674ZM3.94166 5.20328C3.19916 5.34995 2.65833 5.99162 2.65833 6.77995C2.65833 7.77912 3.06166 8.74162 3.85916 9.62162C3.89583 9.66745 3.94166 9.70412 3.98749 9.74078C3.92332 9.36495 3.89582 8.98912 3.89582 8.61328V5.86328C3.89582 5.64328 3.91416 5.42328 3.94166 5.20328Z" fill="#73B009"/>
<path d="M11 15.8548C7.08587 15.8548 3.89587 12.6648 3.89587 8.75065V6.00065C3.89587 3.59898 5.84837 1.64648 8.25004 1.64648H13.75C16.1517 1.64648 18.1042 3.59898 18.1042 6.00065V8.75065C18.1042 12.6648 14.9142 15.8548 11 15.8548ZM8.25004 3.02148C6.60921 3.02148 5.27087 4.35982 5.27087 6.00065V8.75065C5.27087 11.9132 7.83754 14.4798 11 14.4798C14.1625 14.4798 16.7292 11.9132 16.7292 8.75065V6.00065C16.7292 4.35982 15.3909 3.02148 13.75 3.02148H8.25004Z" fill="#73B009"/>
</svg>
