<svg width="16" height="16" viewBox="0 0 16 16" fill="none" xmlns="http://www.w3.org/2000/svg">
<path d="M12.0467 5.67245L6.34005 2.81911C2.50672 0.899113 0.933387 2.47245 2.85339 6.30578L3.43339 7.46578C3.60005 7.80578 3.60005 8.19911 3.43339 8.53911L2.85339 9.69245C0.933387 13.5258 2.50005 15.0991 6.34005 13.1791L12.0467 10.3258C14.6067 9.04578 14.6067 6.95245 12.0467 5.67245ZM9.89339 8.49911H6.29339C6.02005 8.49911 5.79339 8.27245 5.79339 7.99911C5.79339 7.72578 6.02005 7.49911 6.29339 7.49911H9.89339C10.1667 7.49911 10.3934 7.72578 10.3934 7.99911C10.3934 8.27245 10.1667 8.49911 9.89339 8.49911Z" fill="#73B009"/>
</svg>
