<svg width="22" height="23" viewBox="0 0 22 23" fill="none" xmlns="http://www.w3.org/2000/svg">
<path d="M8.69014 19.4649C8.23181 19.4649 7.91097 19.309 7.71847 19.1624C7.35181 18.8965 6.78347 18.209 7.14097 16.669L7.66345 14.414C7.70928 14.2215 7.60846 13.8732 7.47096 13.7265L5.6468 11.9024C4.6843 10.9399 4.76679 10.1057 4.89513 9.6932C5.02346 9.2807 5.44512 8.55653 6.78346 8.32737L9.12097 7.94237C9.29514 7.91487 9.57929 7.70404 9.65263 7.54821L10.9451 4.9632C11.5685 3.71653 12.3935 3.5332 12.8335 3.5332C13.2735 3.5332 14.0985 3.71653 14.7218 4.9632L16.0143 7.54821C16.0968 7.70404 16.3718 7.91487 16.546 7.94237L18.8835 8.32737C20.2218 8.54737 20.6435 9.2807 20.7718 9.6932C20.9001 10.1057 20.9826 10.9399 20.0201 11.9024L18.196 13.7265C18.0585 13.864 17.9576 14.2215 18.0035 14.414L18.526 16.669C18.8835 18.2182 18.3151 18.8965 17.9484 19.1624C17.5818 19.4282 16.766 19.7674 15.391 18.9515L13.2001 17.6499C13.0168 17.5399 12.6318 17.5399 12.4484 17.6499L10.2576 18.9515C9.62513 19.3365 9.09347 19.4649 8.69014 19.4649ZM12.8335 4.9082C12.6868 4.9082 12.421 5.08237 12.1735 5.57737L10.881 8.16237C10.606 8.72154 9.95513 9.19821 9.34096 9.29904L7.00348 9.68404C6.48098 9.77571 6.24264 9.96821 6.1968 10.1149C6.15097 10.2615 6.23345 10.5549 6.60929 10.9307L8.43347 12.7549C8.90097 13.2224 9.14847 14.0749 9.0018 14.7165L8.4793 16.9715C8.32346 17.6224 8.42428 17.9707 8.52512 18.0532C8.62595 18.1265 8.99262 18.1174 9.56096 17.769L11.761 16.4674C12.3751 16.1007 13.301 16.1007 13.906 16.4674L16.0968 17.769C16.6743 18.1082 17.041 18.1265 17.1418 18.0532C17.2426 17.9799 17.3435 17.6315 17.1876 16.9715L16.6651 14.7165C16.5185 14.0657 16.7568 13.2224 17.2335 12.7549L19.0576 10.9307C19.4335 10.5549 19.516 10.2524 19.4701 10.1149C19.4243 9.97738 19.1859 9.77571 18.6634 9.68404L16.326 9.29904C15.7118 9.19821 15.061 8.72154 14.786 8.16237L13.4935 5.57737C13.246 5.08237 12.9801 4.9082 12.8335 4.9082Z" fill="#73B009"/>
<path d="M7.33337 5.77148H1.83337C1.45754 5.77148 1.14587 5.45982 1.14587 5.08398C1.14587 4.70815 1.45754 4.39648 1.83337 4.39648H7.33337C7.70921 4.39648 8.02087 4.70815 8.02087 5.08398C8.02087 5.45982 7.70921 5.77148 7.33337 5.77148Z" fill="#73B009"/>
<path d="M4.58337 18.6035H1.83337C1.45754 18.6035 1.14587 18.2918 1.14587 17.916C1.14587 17.5402 1.45754 17.2285 1.83337 17.2285H4.58337C4.95921 17.2285 5.27087 17.5402 5.27087 17.916C5.27087 18.2918 4.95921 18.6035 4.58337 18.6035Z" fill="#73B009"/>
<path d="M2.75004 12.1875H1.83337C1.45754 12.1875 1.14587 11.8758 1.14587 11.5C1.14587 11.1242 1.45754 10.8125 1.83337 10.8125H2.75004C3.12587 10.8125 3.43754 11.1242 3.43754 11.5C3.43754 11.8758 3.12587 12.1875 2.75004 12.1875Z" fill="#73B009"/>
</svg>
