<svg width="20" height="21" viewBox="0 0 20 21" fill="none" xmlns="http://www.w3.org/2000/svg">
<path d="M11.4417 3.42422L12.9084 6.35755C13.1084 6.76588 13.6417 7.15755 14.0917 7.23255L16.75 7.67422C18.45 7.95755 18.85 9.19088 17.625 10.4076L15.5584 12.4742C15.2084 12.8242 15.0167 13.4992 15.125 13.9825L15.7167 16.5409C16.1834 18.5659 15.1084 19.3492 13.3167 18.2909L10.825 16.8159C10.375 16.5492 9.63338 16.5492 9.17505 16.8159L6.68338 18.2909C4.90005 19.3492 3.81671 18.5576 4.28338 16.5409L4.87505 13.9825C4.98338 13.4992 4.79171 12.8242 4.44171 12.4742L2.37505 10.4076C1.15838 9.19088 1.55005 7.95755 3.25005 7.67422L5.90838 7.23255C6.35005 7.15755 6.88338 6.76588 7.08338 6.35755L8.55005 3.42422C9.35005 1.83255 10.65 1.83255 11.4417 3.42422Z" fill="#F49C1C"/>
</svg>
